<?xml version="1.0" standalone="no"?>
<!DOCTYPE svg PUBLIC "-//W3C//DTD SVG 20010904//EN"
 "http://www.w3.org/TR/2001/REC-SVG-20010904/DTD/svg10.dtd">
<svg version="1.0" xmlns="http://www.w3.org/2000/svg"
 width="700.000000pt" height="438.000000pt" viewBox="0 0 700.000000 438.000000"
 preserveAspectRatio="xMidYMid meet">
<metadata>
Created by potrace 1.16, written by Peter Selinger 2001-2019
</metadata>
<g transform="translate(0.000000,438.000000) scale(0.100000,-0.100000)"
fill="#000000" stroke="none">
<path d="M1561 4274 c-130 -136 -207 -252 -260 -390 -111 -290 -142 -338 -319
-501 -219 -201 -317 -304 -357 -376 -63 -115 -78 -173 -79 -327 -2 -244 43
-337 285 -587 230 -238 277 -305 355 -503 55 -143 77 -181 158 -278 223 -268
509 -447 1281 -800 72 -33 261 -125 421 -205 329 -165 411 -196 615 -232 79
-13 194 -35 254 -47 99 -20 143 -22 440 -24 l330 -2 -150 23 c-289 45 -400 73
-675 171 l-135 48 -145 0 -145 1 -138 67 c-75 38 -155 79 -177 93 -41 26 -247
131 -365 185 -38 18 -117 55 -174 81 -57 27 -105 49 -107 49 -11 0 -359 178
-457 234 -290 165 -490 326 -622 501 -55 73 -85 134 -131 267 -59 170 -100
235 -179 285 -42 26 -53 42 -39 56 3 3 21 -4 40 -15 18 -11 41 -18 49 -16 10
2 -11 19 -52 42 -193 110 -320 254 -380 429 -37 109 -39 257 -5 358 71 209
244 371 472 440 62 19 99 23 208 23 108 0 129 2 110 12 -39 20 -89 24 -193 16
-143 -12 -142 -13 -79 71 32 42 109 180 185 331 73 143 158 299 191 347 72
107 161 192 253 241 l70 37 -126 1 -127 0 -101 -106z"/>
<path d="M3095 4373 c-310 -22 -596 -125 -894 -321 -119 -78 -383 -274 -377
-279 6 -6 136 71 306 182 199 130 342 209 500 278 65 29 235 74 340 92 84 14
139 16 270 12 91 -3 179 -8 195 -11 17 -3 66 -10 110 -15 44 -6 164 -21 267
-35 245 -34 399 -41 588 -26 297 22 458 24 563 6 168 -29 341 -100 507 -211
77 -51 239 -191 262 -226 10 -16 17 -58 20 -124 9 -171 43 -236 220 -423 168
-177 211 -270 210 -456 -1 -175 -26 -247 -146 -430 -121 -182 -146 -287 -153
-621 -5 -246 -4 -266 43 -680 21 -182 27 -292 28 -455 l1 -215 -29 -60 c-19
-38 -55 -86 -100 -130 -104 -104 -209 -154 -416 -200 l-105 -23 216 -1 216 -1
70 49 c85 60 174 157 234 254 l44 72 -1 230 c-2 203 -6 263 -39 510 -58 443
-59 758 -3 950 11 39 65 164 119 278 131 273 159 359 166 503 7 138 -13 239
-60 310 -18 27 -93 113 -167 190 -74 78 -150 167 -169 198 -51 85 -81 187 -85
288 -2 47 -6 90 -10 96 -3 5 -36 34 -73 65 -192 156 -358 243 -657 344 l-129
43 -441 -1 c-243 -1 -434 -3 -426 -5 8 -2 94 -13 190 -24 275 -31 344 -42 328
-51 -28 -16 -265 -31 -383 -24 -123 7 -424 38 -530 55 -177 29 -505 52 -620
43z"/>
<path d="M3060 4183 c-362 -39 -678 -170 -931 -386 -64 -55 -169 -167 -156
-167 2 0 39 29 82 65 396 329 839 481 1340 461 161 -6 193 -11 405 -60 159
-37 360 -49 592 -36 101 5 201 12 223 15 22 3 127 14 233 26 l194 21 58 -41
c57 -40 80 -49 80 -33 0 13 -52 58 -90 78 -48 26 -270 26 -380 1 -207 -48
-466 -45 -825 8 -412 61 -601 72 -825 48z"/>
<path d="M2990 4004 c-335 -41 -566 -123 -699 -248 -44 -42 -114 -136 -106
-144 2 -2 30 24 62 59 181 196 489 294 963 306 124 3 227 7 229 9 2 2 2 6 -1
9 -7 7 -401 15 -448 9z"/>
<path d="M4500 3935 c-8 -2 -62 -11 -119 -21 -60 -11 -113 -26 -125 -36 -19
-15 -20 -18 -5 -33 13 -13 21 -15 37 -6 48 26 232 61 347 67 278 15 489 -72
576 -236 28 -52 30 -53 25 -20 -7 63 -57 152 -101 182 -51 34 -169 73 -280 93
-76 13 -307 19 -355 10z"/>
<path d="M2690 3608 c-87 -11 -236 -58 -300 -95 -100 -59 -205 -187 -212 -262
-4 -32 40 -63 101 -71 36 -5 82 1 173 22 268 60 531 24 835 -114 l131 -59 86
57 c118 77 147 134 109 207 -30 59 -77 108 -149 156 -200 134 -492 194 -774
159z m624 -221 c94 -50 138 -98 140 -154 l1 -38 -65 0 c-58 1 -73 6 -146 47
-101 56 -164 78 -226 78 -48 0 -48 0 -42 28 4 15 13 39 20 54 8 15 14 43 14
62 l0 34 113 -35 c61 -19 148 -53 191 -76z"/>
<path d="M4697 3465 c-176 -29 -348 -106 -426 -190 l-43 -47 -43 11 c-63 16
-131 14 -149 -4 -12 -12 -13 -22 -5 -44 12 -34 34 -50 101 -75 26 -9 58 -26
72 -37 26 -20 26 -22 26 -158 0 -137 0 -137 28 -163 15 -14 59 -45 97 -68 83
-50 119 -82 135 -121 11 -26 8 -34 -33 -96 -84 -125 -196 -213 -253 -199 -15
4 -41 18 -59 32 -37 28 -57 30 -75 9 -18 -21 3 -74 51 -129 82 -93 145 -73
324 109 66 66 130 129 143 140 22 18 23 18 50 -7 15 -14 37 -29 50 -33 19 -5
25 0 42 39 10 25 26 46 33 46 8 0 58 -23 111 -51 112 -59 185 -84 200 -69 6 6
3 12 -10 16 -112 37 -286 152 -542 354 l-170 135 -1 107 c-1 125 -1 125 109
158 84 25 157 36 370 55 179 17 334 46 366 69 17 13 17 15 -1 56 -59 132 -259
194 -498 155z"/>
<path d="M5313 3289 c-13 -7 -23 -15 -23 -18 0 -3 73 -7 163 -7 131 -1 177 -5
240 -22 231 -63 377 -210 408 -412 11 -67 10 -87 -9 -171 -37 -173 -38 -175
-216 -238 -72 -26 -105 -44 -120 -64 -15 -21 -17 -30 -8 -39 9 -9 16 -8 29 4
26 22 72 44 155 74 119 43 148 68 176 149 48 141 40 324 -21 455 -41 86 -167
213 -252 255 -55 26 -69 29 -180 30 -66 0 -165 4 -220 8 -69 5 -107 4 -122 -4z"/>
<path d="M1262 3280 c-132 -24 -248 -82 -303 -153 -32 -40 -83 -136 -77 -143
3 -2 21 22 41 54 67 109 158 173 287 202 30 6 126 14 213 17 101 4 155 9 149
15 -14 14 -245 19 -310 8z"/>
<path d="M1501 3168 c-126 -18 -284 -103 -360 -194 -17 -21 -49 -73 -69 -113
-36 -73 -37 -78 -37 -185 0 -107 1 -114 36 -186 37 -78 131 -191 146 -177 20
20 6 122 -28 202 -29 70 -33 90 -33 165 1 94 18 146 76 226 67 94 195 147 358
148 l95 1 50 -39 c207 -161 667 -218 903 -110 30 13 71 37 92 54 48 38 93 125
88 172 -3 33 -4 34 -35 26 -18 -5 -61 -29 -95 -53 -191 -136 -218 -148 -353
-148 -123 0 -189 20 -387 121 -75 39 -160 75 -190 81 -80 16 -185 20 -257 9z"/>
<path d="M5710 3122 c0 -16 45 -50 102 -76 91 -43 102 -64 109 -231 8 -163 9
-160 -86 -238 -57 -46 -61 -52 -40 -55 36 -5 100 33 126 75 23 36 24 46 23
193 -2 200 -8 227 -59 261 -34 22 -157 79 -171 79 -2 0 -4 -4 -4 -8z"/>
<path d="M5480 3020 c-139 -19 -291 -81 -392 -161 l-26 -22 -62 42 c-93 62
-150 52 -136 -24 18 -92 99 -129 290 -129 l119 -1 12 48 c22 87 71 117 187
117 40 0 105 -7 143 -16 116 -25 186 -37 191 -31 12 11 -11 60 -47 101 -57 65
-159 92 -279 76z"/>
<path d="M1596 2905 c-12 -101 -56 -155 -199 -244 -62 -38 -122 -80 -135 -94
-21 -23 -22 -26 -7 -41 19 -19 95 -21 165 -5 66 15 82 7 113 -56 29 -60 33
-88 17 -130 -9 -25 -5 -33 54 -96 35 -38 102 -124 148 -191 315 -458 405 -553
708 -750 126 -82 343 -195 487 -252 260 -104 595 -152 1118 -163 597 -12 1065
47 1296 162 176 88 290 362 319 765 12 164 -1 402 -27 510 -8 36 -44 125 -79
199 -45 94 -66 150 -70 190 -8 65 -17 81 -51 81 -32 0 -50 -44 -58 -146 -13
-170 -23 -208 -63 -246 -155 -147 -392 -252 -692 -304 -131 -24 -540 -27 -690
-6 -452 64 -696 123 -1190 288 -290 98 -959 372 -1047 430 -19 12 -23 24 -23
62 0 59 -21 92 -59 92 -27 0 -29 -3 -35 -55z m174 -270 c25 -8 115 -54 200
-101 85 -47 171 -92 190 -99 l35 -12 0 -104 c0 -57 4 -110 9 -118 7 -12 1 -13
-41 -7 -204 27 -400 137 -476 267 -30 51 -61 163 -53 186 7 18 58 13 136 -12z
m725 -319 c50 -13 135 -38 190 -55 55 -17 161 -48 235 -69 114 -33 135 -42
134 -58 -2 -28 -43 -224 -49 -234 -3 -5 -26 0 -50 10 -25 11 -111 38 -192 61
-291 81 -394 156 -434 312 -6 26 -9 53 -6 61 6 16 21 14 172 -28z m2896 -173
c35 -72 44 -101 47 -155 4 -64 3 -69 -26 -98 -17 -16 -35 -30 -40 -30 -13 0
-40 122 -48 216 -7 83 0 154 15 154 5 0 28 -39 52 -87z m-3341 -75 c132 -65
198 -167 171 -267 -7 -25 -16 -50 -20 -54 -14 -15 -86 30 -132 81 -24 27 -68
87 -96 135 -29 47 -68 101 -86 121 -19 20 -32 38 -30 40 9 9 132 -26 193 -56z
m3146 10 c20 -38 21 -96 4 -200 l-13 -78 -36 0 c-19 0 -55 -7 -78 -16 -49 -19
-60 -15 -44 14 17 32 13 52 -19 117 -39 78 -40 112 -2 121 35 9 119 51 127 64
13 21 45 10 61 -22z m-1751 -34 c94 -19 206 -42 250 -52 l80 -17 3 -117 3
-117 -37 -7 c-64 -12 -214 6 -390 47 -94 21 -180 39 -192 39 -11 0 -23 4 -26
9 -5 8 40 236 50 253 7 11 37 7 259 -38z m1402 -63 c7 -11 15 -43 19 -73 4
-29 13 -66 21 -82 8 -15 11 -32 6 -37 -23 -23 -138 -41 -292 -46 l-164 -6 6
73 c4 47 2 78 -6 90 -6 11 -9 22 -6 25 8 7 98 21 233 35 60 6 121 18 135 25
34 18 34 18 48 -4z m-778 -26 c14 -4 68 -10 120 -14 l96 -6 6 -35 c3 -19 11
-48 18 -63 6 -16 11 -44 11 -63 l0 -34 -210 0 -210 0 0 114 c0 75 4 116 11
118 15 5 128 -7 158 -17z m-1582 -111 c139 -66 230 -102 333 -133 134 -41 130
-38 130 -86 0 -57 -21 -122 -62 -192 -36 -59 -52 -97 -62 -144 l-6 -27 -69 36
c-39 20 -155 95 -259 167 -105 71 -198 135 -208 141 -18 11 -18 13 3 35 41 45
63 109 63 187 0 39 4 72 9 72 5 0 63 -25 128 -56z m722 -255 c134 -50 278 -93
370 -110 53 -10 76 -19 83 -33 8 -14 7 -63 -2 -167 -7 -80 -11 -158 -8 -172 4
-23 1 -26 -38 -36 -24 -6 -62 -11 -86 -11 -62 0 -221 34 -372 80 -72 22 -147
43 -166 48 -33 8 -35 11 -33 45 1 20 25 82 54 139 48 94 53 110 57 186 4 72 7
82 21 77 9 -4 63 -25 120 -46z m641 -174 c88 -24 238 -45 328 -45 80 0 82 -1
77 -22 -4 -20 -34 -195 -51 -295 l-5 -33 -172 1 c-182 1 -264 13 -260 39 1 8
7 38 13 65 7 31 8 97 4 178 -4 71 -3 127 2 127 5 0 34 -7 64 -15z m1418 -9 c2
-10 -8 -44 -22 -76 -35 -78 -34 -105 5 -126 23 -11 34 -13 42 -5 17 17 31 13
16 -5 -20 -24 -58 -40 -136 -58 -108 -24 -106 -25 -83 37 34 88 81 175 118
217 35 42 54 47 60 16z m-238 -43 c0 -10 -14 -38 -31 -63 -55 -82 -71 -120
-67 -164 l3 -41 -50 -16 c-27 -10 -70 -19 -95 -20 -42 -4 -45 -2 -42 18 2 13
19 56 38 98 19 41 37 95 41 120 5 42 8 45 37 46 17 0 54 9 81 19 65 24 85 24
85 3z m-361 -9 c17 -4 31 -13 31 -21 0 -7 -22 -62 -49 -122 -28 -59 -53 -120
-56 -134 -5 -17 -18 -30 -38 -37 -32 -12 -237 -27 -237 -17 0 2 7 42 16 88 33
176 102 248 240 249 34 0 76 -3 93 -6z"/>
<path d="M859 2893 c-22 -106 4 -398 49 -558 13 -47 176 -147 261 -161 52 -8
56 11 4 21 -130 24 -230 137 -274 310 -19 76 -23 117 -23 268 0 97 -1 177 -2
177 -2 0 -8 -26 -15 -57z"/>
<path d="M3369 2720 c-63 -11 -156 -57 -176 -86 -24 -37 -14 -204 15 -261 37
-72 90 -102 147 -83 31 10 35 15 35 46 0 28 -9 45 -45 82 -25 25 -48 54 -51
65 -9 29 5 86 24 96 10 5 62 14 116 20 103 12 136 23 136 46 0 26 -45 66 -85
75 -45 11 -52 11 -116 0z"/>
<path d="M3100 2701 c0 -5 7 -11 15 -15 22 -8 18 -29 -11 -57 -25 -23 -31 -24
-219 -29 -189 -5 -227 -12 -211 -39 4 -6 18 -5 41 5 27 11 74 14 203 12 145
-3 171 -1 194 14 28 18 51 78 41 104 -6 15 -53 20 -53 5z"/>
<path d="M3580 2510 c-30 -4 -73 -13 -94 -20 l-39 -12 6 -49 c3 -27 11 -58 17
-69 11 -21 12 -21 38 -4 43 28 91 34 202 22 112 -11 190 0 190 26 0 25 -43 68
-86 86 -49 21 -154 30 -234 20z"/>
<path d="M1820 1192 c0 -8 19 -19 217 -127 116 -64 297 -155 308 -155 2 0 36
-15 77 -34 294 -135 745 -278 1122 -356 434 -90 757 -126 1216 -137 370 -8
559 19 720 103 77 40 146 97 183 151 22 32 27 51 29 117 2 56 -1 80 -9 83 -10
4 -13 -17 -13 -80 l0 -85 -52 -47 c-95 -85 -275 -155 -494 -191 -155 -25 -523
-30 -756 -10 -776 68 -1431 255 -2128 609 -200 101 -308 146 -387 161 -18 3
-33 2 -33 -2z"/>
<path d="M2224 1154 c48 -19 204 -91 345 -160 516 -254 747 -340 1031 -384
100 -15 300 -23 345 -13 36 8 29 10 -65 17 -148 10 -349 41 -455 70 -212 58
-325 105 -760 316 -198 96 -312 143 -410 171 -113 31 -130 22 -31 -17z"/>
<path d="M5344 832 c-60 -66 -131 -112 -239 -152 -116 -43 -251 -70 -440 -86
-38 -3 -72 -8 -74 -10 -2 -2 64 -4 147 -4 358 0 562 77 634 240 17 38 29 70
25 70 -1 0 -25 -26 -53 -58z"/>
<path d="M3803 769 c-13 -4 -23 -10 -23 -11 0 -2 193 -3 429 -3 327 0 433 3
442 12 10 10 -75 12 -407 12 -230 -1 -429 -5 -441 -10z"/>
</g>
</svg>
